
  <svg width="441.75" height="48" viewBox="0 0 2356 256" fill="none" xmlns="http://www.w3.org/2000/svg" xmlns:xlink="http://www.w3.org/1999/xlink" version="1.1">
    
        <g transform="translate(0, 0)">
          <svg xmlns="http://www.w3.org/2000/svg" width="256" height="256" fill="none" viewBox="0 0 256 256"><rect width="256" height="256" fill="#242938" rx="60"/><path fill="#fff" d="M49.158 100.246H77.566C85.904 100.316 91.946 102.72 95.692 107.454C99.438 112.188 100.674 118.654 99.402 126.852C98.908 130.598 97.812 134.272 96.116 137.876C94.49 141.48 92.23 144.73 89.332 147.628C85.798 151.302 82.018 153.634 77.99 154.624C73.962 155.614 69.792 156.108 65.482 156.108H52.762L48.734 176.248H34L49.158 100.246V100.246ZM61.56 112.33L55.2 144.13C55.624 144.2 56.048 144.236 56.472 144.236C56.966 144.236 57.462 144.236 57.956 144.236C64.74 144.306 70.394 143.636 74.916 142.222C79.438 140.738 82.478 135.58 84.032 126.746C85.304 119.326 84.032 115.05 80.216 113.92C76.47 112.79 71.772 112.26 66.118 112.33C65.27 112.4 64.458 112.436 63.68 112.436C62.974 112.436 62.232 112.436 61.454 112.436L61.56 112.33"/><path fill="#fff" d="M116.186 80H130.814L126.68 100.246H139.824C147.032 100.388 152.402 101.872 155.936 104.698C159.54 107.524 160.6 112.896 159.116 120.81L152.014 156.108H137.174L143.958 122.4C144.664 118.866 144.452 116.358 143.322 114.874C142.192 113.39 139.754 112.648 136.008 112.648L124.242 112.542L115.55 156.108H100.922L116.186 80Z"/><path fill="#fff" d="M174.824 100.246H203.232C211.57 100.316 217.612 102.72 221.358 107.454C225.104 112.188 226.34 118.654 225.068 126.852C224.574 130.598 223.478 134.272 221.782 137.876C220.156 141.48 217.896 144.73 214.998 147.628C211.464 151.302 207.684 153.634 203.656 154.624C199.628 155.614 195.458 156.108 191.148 156.108H178.428L174.4 176.248H159.666L174.824 100.246V100.246ZM187.226 112.33L180.866 144.13C181.29 144.2 181.714 144.236 182.138 144.236C182.632 144.236 183.128 144.236 183.622 144.236C190.406 144.306 196.06 143.636 200.582 142.222C205.104 140.738 208.144 135.58 209.698 126.746C210.97 119.326 209.698 115.05 205.882 113.92C202.136 112.79 197.438 112.26 191.784 112.33C190.936 112.4 190.124 112.436 189.346 112.436C188.64 112.436 187.898 112.436 187.12 112.436L187.226 112.33"/></svg>
        </g>
         
        <g transform="translate(300, 0)">
          <svg xmlns="http://www.w3.org/2000/svg" width="256" height="256" fill="none" viewBox="0 0 256 256"><rect width="256" height="256" fill="#242938" rx="60"/><path fill="#FF2D20" fill-rule="evenodd" d="M215.846 78.3138C215.91 78.5572 215.944 78.8083 215.944 79.0605V118.26C215.944 118.763 215.813 119.257 215.565 119.692C215.316 120.128 214.958 120.489 214.528 120.739L182.082 139.681V177.226C182.082 178.248 181.547 179.191 180.673 179.706L112.945 219.241C112.79 219.33 112.621 219.387 112.452 219.448C112.388 219.47 112.329 219.509 112.262 219.527C111.788 219.653 111.291 219.653 110.817 219.527C110.74 219.505 110.669 219.462 110.595 219.434C110.44 219.377 110.278 219.327 110.13 219.241L42.4164 179.706C41.9862 179.455 41.6288 179.094 41.3801 178.659C41.1314 178.224 41.0003 177.729 41 177.226V59.6288C41 59.3715 41.0352 59.1214 41.0986 58.8785C41.1198 58.7963 41.1691 58.7213 41.1973 58.6391C41.2501 58.4891 41.2995 58.3355 41.377 58.1961C41.4298 58.1032 41.5073 58.0282 41.5708 57.9425C41.6518 57.8281 41.7258 57.7102 41.8209 57.6102C41.9019 57.528 42.0076 57.4673 42.0993 57.3959C42.2014 57.3101 42.293 57.2172 42.4093 57.1493H42.4128L76.2714 37.3818C76.7001 37.1317 77.1861 37 77.6807 37C78.1753 37 78.6613 37.1317 79.09 37.3818L112.949 57.1493H112.956C113.068 57.2208 113.164 57.3101 113.266 57.3923C113.357 57.4637 113.459 57.528 113.54 57.6066C113.639 57.7102 113.71 57.8281 113.794 57.9425C113.854 58.0282 113.935 58.1032 113.984 58.1961C114.065 58.339 114.111 58.4891 114.168 58.6391C114.196 58.7213 114.245 58.7963 114.266 58.8821C114.331 59.1255 114.364 59.3766 114.365 59.6288V133.079L142.579 116.606V79.0569C142.579 78.8068 142.614 78.5531 142.678 78.3138C142.703 78.228 142.748 78.153 142.777 78.0708C142.833 77.9208 142.882 77.7672 142.96 77.6278C143.013 77.5349 143.09 77.4599 143.15 77.3742C143.235 77.2598 143.305 77.1419 143.404 77.0419C143.485 76.9597 143.587 76.899 143.679 76.8275C143.784 76.7418 143.876 76.6489 143.989 76.581H143.993L177.855 56.8135C178.283 56.563 178.769 56.4311 179.264 56.4311C179.759 56.4311 180.245 56.563 180.673 56.8135L214.532 76.581C214.652 76.6525 214.743 76.7418 214.849 76.824C214.937 76.8954 215.039 76.9597 215.12 77.0383C215.219 77.1419 215.289 77.2598 215.374 77.3742C215.437 77.4599 215.515 77.5349 215.564 77.6278C215.645 77.7672 215.691 77.9208 215.747 78.0708C215.779 78.153 215.825 78.228 215.846 78.3138H215.846ZM210.3 116.606V84.0086L198.451 90.9253L182.082 100.482V133.079L210.303 116.606H210.3ZM176.441 175.572V142.954L160.34 152.279L114.361 178.888V211.813L176.441 175.572ZM46.6443 64.5769V175.572L108.717 211.81V178.891L76.289 160.281L76.2784 160.274L76.2643 160.267C76.1551 160.203 76.0635 160.11 75.9613 160.031C75.8732 159.96 75.7711 159.903 75.6936 159.824L75.6866 159.814C75.595 159.724 75.5315 159.614 75.454 159.513C75.3835 159.417 75.299 159.335 75.2426 159.235L75.2386 159.224C75.1752 159.117 75.1364 158.988 75.0906 158.867C75.0448 158.76 74.9849 158.66 74.9568 158.545V158.541C74.9216 158.406 74.9145 158.263 74.9004 158.123C74.8863 158.016 74.8581 157.909 74.8581 157.802V157.795V81.0505L58.493 71.49L46.6443 64.5805V64.5769ZM77.6842 43.1624L49.4735 59.6288L77.6772 76.0951L105.884 59.6252L77.6772 43.1624H77.6842ZM92.3551 145.926L108.721 136.373V64.5769L96.8719 71.4936L80.5029 81.0504V152.847L92.3551 145.926ZM179.264 62.5941L151.056 79.0605L179.264 95.5268L207.467 79.0569L179.264 62.5941ZM176.441 100.482L160.072 90.9253L148.224 84.0086V116.606L164.589 126.159L176.441 133.079V100.482ZM111.536 173.94L152.909 149.988L173.591 138.02L145.405 121.564L112.952 140.51L83.3743 157.777L111.536 173.94Z" clip-rule="evenodd"/></svg>
        </g>
         
        <g transform="translate(600, 0)">
          <svg xmlns="http://www.w3.org/2000/svg" width="256" height="256" fill="none" viewBox="0 0 256 256"><rect width="256" height="256" fill="#242938" rx="60"/><path fill="#fff" d="M121.451 28.0537C121.021 28.0928 119.652 28.2297 118.42 28.3274C90.0137 30.8885 63.4057 46.216 46.5533 69.7742C37.1691 82.8729 31.1672 97.7312 28.8993 113.469C28.0978 118.963 28 120.586 28 128.034C28 135.483 28.0978 137.106 28.8993 142.599C34.3343 180.155 61.0596 211.71 97.306 223.401C103.797 225.493 110.639 226.92 118.42 227.78C121.451 228.112 134.549 228.112 137.58 227.78C151.011 226.294 162.389 222.971 173.611 217.242C175.331 216.363 175.664 216.128 175.429 215.933C175.273 215.815 167.941 205.981 159.144 194.095L143.152 172.492L123.112 142.834C112.086 126.529 103.015 113.195 102.936 113.195C102.858 113.176 102.78 126.353 102.741 142.443C102.682 170.615 102.663 171.749 102.311 172.413C101.803 173.371 101.412 173.762 100.59 174.193C99.9648 174.505 99.4174 174.564 96.4653 174.564H93.0831L92.1838 173.997C91.5973 173.626 91.1672 173.137 90.8739 172.57L90.4633 171.69L90.5024 132.492L90.5611 93.2737L91.1672 92.5112C91.48 92.1007 92.1447 91.5728 92.6139 91.3186C93.4154 90.9276 93.7283 90.8885 97.1105 90.8885C101.099 90.8885 101.763 91.0449 102.8 92.1789C103.093 92.4917 113.943 108.836 126.925 128.523C139.906 148.21 157.658 175.092 166.377 188.288L182.213 212.277L183.015 211.749C190.111 207.135 197.619 200.566 203.562 193.723C216.211 179.197 224.364 161.485 227.101 142.599C227.902 137.106 228 135.483 228 128.034C228 120.586 227.902 118.963 227.101 113.469C221.666 75.913 194.94 44.3587 158.694 32.6676C152.301 30.5953 145.498 29.1681 137.873 28.3079C135.996 28.1124 123.073 27.8973 121.451 28.0537ZM162.389 88.5425C163.327 89.0117 164.09 89.911 164.364 90.8494C164.52 91.3577 164.559 102.228 164.52 126.724L164.461 161.876L158.264 152.374L152.047 142.873V117.321C152.047 100.801 152.125 91.5141 152.242 91.0645C152.555 89.9697 153.239 89.1095 154.178 88.6011C154.979 88.1906 155.273 88.1515 158.342 88.1515C161.236 88.1515 161.744 88.1906 162.389 88.5425Z"/></svg>
        </g>
         
        <g transform="translate(900, 0)">
          <svg xmlns="http://www.w3.org/2000/svg" width="256" height="256" fill="none" viewBox="0 0 256 256"><rect width="256" height="256" fill="#007ACC" rx="60"/><path fill="#fff" d="M56.6112 128.849L56.5299 139.333H73.1902H89.8505L89.8505 186.673V234.012H101.635H113.419V186.673L113.419 139.333H130.079H146.739V129.052C146.739 123.363 146.618 118.609 146.455 118.487C146.333 118.325 126.056 118.243 101.472 118.284L56.7331 118.406L56.6112 128.849Z"/><path fill="#fff" d="M206.567 118.108C213.068 119.734 218.026 122.619 222.577 127.332C224.934 129.852 228.428 134.444 228.713 135.541C228.794 135.866 217.66 143.343 210.915 147.528C210.671 147.691 209.695 146.634 208.598 145.009C205.307 140.214 201.853 138.141 196.57 137.776C188.809 137.247 183.811 141.311 183.852 148.097C183.852 150.088 184.136 151.266 184.949 152.892C186.655 156.427 189.825 158.54 199.781 162.847C218.107 170.731 225.949 175.932 230.826 183.327C236.271 191.576 237.49 204.742 233.792 214.535C229.729 225.181 219.651 232.414 205.469 234.812C201.081 235.584 190.678 235.462 185.965 234.609C175.684 232.78 165.932 227.701 159.918 221.037C157.561 218.436 152.969 211.65 153.254 211.162C153.375 211 154.432 210.35 155.61 209.659C156.748 209.009 161.056 206.53 165.119 204.173L172.474 199.906L174.018 202.182C176.172 205.473 180.885 209.984 183.73 211.487C191.897 215.795 203.113 215.185 208.639 210.228C210.996 208.074 211.971 205.839 211.971 202.548C211.971 199.581 211.605 198.281 210.061 196.046C208.07 193.202 204.007 190.804 192.466 185.806C179.26 180.117 173.571 176.582 168.37 170.974C165.363 167.724 162.518 162.522 161.34 158.174C160.365 154.558 160.121 145.496 160.893 141.839C163.615 129.08 173.246 120.181 187.143 117.539C191.654 116.686 202.137 117.011 206.567 118.108Z"/></svg>
        </g>
         
        <g transform="translate(1200, 0)">
          <svg xmlns="http://www.w3.org/2000/svg" width="256" height="256" fill="none" viewBox="0 0 256 256"><rect width="256" height="256" fill="#242938" rx="60"/><g clip-path="url(#clip0_7_147)"><path fill="#fff" fill-rule="evenodd" d="M203.801 178.21C194.011 177.938 186.416 178.941 180.051 181.619C178.218 182.355 175.277 182.355 175.035 184.662C176.015 185.63 176.133 187.214 176.992 188.556C178.459 190.991 181.033 194.271 183.357 195.973L191.191 201.571C195.965 204.488 201.351 206.193 206.002 209.113C208.696 210.817 211.388 213.007 214.082 214.834C215.454 215.807 216.285 217.392 218 217.997V217.629C217.144 216.538 216.897 214.957 216.044 213.735L212.367 210.209C208.82 205.465 204.41 201.325 199.636 197.922C195.718 195.245 187.152 191.596 185.56 187.097L185.319 186.824C188.008 186.552 191.191 185.605 193.764 184.875C197.929 183.784 201.721 184.024 206.002 182.93L211.882 181.226V180.135C209.678 177.946 208.087 175.025 205.763 172.959C199.521 167.606 192.661 162.373 185.56 157.994C181.766 155.562 176.868 153.977 172.829 151.913C171.356 151.182 168.911 150.817 168.055 149.601C165.846 146.929 164.625 143.397 163.034 140.232L152.997 119.064C150.794 114.319 149.444 109.574 146.755 105.195C134.144 84.5124 120.431 71.9828 99.375 59.6932C94.8477 57.1382 89.4616 56.0393 83.7353 54.7032L74.5546 54.2124C72.5928 53.3616 70.6364 51.0493 68.9216 49.9531C61.9441 45.5739 43.9475 36.0847 38.8029 48.5897C35.4966 56.4974 43.7006 64.2824 46.4855 68.299C48.5708 71.0966 51.2597 74.2597 52.7332 77.4228C53.5563 79.4897 53.8307 81.682 54.6895 83.8717C56.6458 89.2243 58.4842 95.1878 61.0551 100.178C62.427 102.733 63.8675 105.413 65.5824 107.723C66.5619 109.086 68.2768 109.67 68.6417 111.859C66.9268 114.294 66.8089 117.94 65.8293 120.986C61.42 134.734 63.1349 151.766 69.377 161.888C71.3389 164.928 75.9622 171.622 82.2345 169.065C87.744 166.875 86.5148 159.941 88.1062 153.857C88.4766 152.399 88.2297 151.425 88.9623 150.449V150.722L93.9834 160.819C97.7781 166.78 104.391 172.986 109.897 177.125C112.833 179.315 115.16 183.089 118.831 184.425V184.057H118.59C117.854 182.966 116.751 182.475 115.772 181.624C113.569 179.435 111.121 176.757 109.406 174.325C104.267 167.513 99.7399 159.968 95.6983 152.183C93.7365 148.412 92.0216 144.275 90.4357 140.504C89.6949 139.043 89.6949 136.85 88.4739 136.125C86.6355 138.797 83.9466 141.115 82.5939 144.398C80.2672 149.628 80.0257 156.077 79.1697 162.769C78.6758 162.891 78.8953 162.769 78.6758 163.041C74.7631 162.071 73.4132 158.051 71.9453 154.648C68.274 146.01 67.6594 132.141 70.8422 122.164C71.6983 119.609 75.375 111.579 73.9071 109.146C73.1662 106.834 70.7242 105.498 69.3743 103.671C67.7829 101.359 66.0735 98.4409 64.9705 95.8859C62.0346 89.0689 60.5667 81.5293 57.3812 74.7151C55.9077 71.552 53.3396 68.2662 51.257 65.3486C48.9303 62.0628 46.3648 59.7505 44.5265 55.8593C43.9146 54.4959 43.0585 52.3309 44.0381 50.8693C44.2795 49.8959 44.7734 49.5059 45.7475 49.2878C47.3389 47.9244 51.8716 49.6532 53.463 50.3785C57.9903 52.2054 61.7849 53.907 65.5796 56.4592C67.2945 57.6754 69.1329 59.9877 71.3361 60.5985H73.9098C77.8279 61.4493 82.2317 60.8712 85.9002 61.9619C92.3893 64.0343 98.2637 67.0719 103.532 70.3604C119.567 80.4577 132.792 94.8143 141.725 111.971C143.193 114.769 143.805 117.324 145.155 120.244C147.729 126.208 150.912 132.289 153.477 138.132C156.051 143.85 158.498 149.694 162.17 154.438C164.008 156.993 171.35 158.329 174.654 159.668C177.104 160.759 180.896 161.741 183.105 163.077C187.264 165.632 191.427 168.552 195.342 171.35C197.298 172.806 203.423 175.849 203.787 178.276L203.801 178.21ZM78.9584 72.4873C77.267 72.4724 75.5809 72.6769 73.9427 73.0954V73.3681H74.1842C75.1637 75.315 76.8786 76.6538 78.1023 78.3581L80.9202 84.1989L81.1616 83.9262C82.8765 82.71 83.7353 80.7631 83.7353 77.8454C83 76.9947 82.8793 76.1412 82.2674 75.2904C81.5321 74.0743 79.9407 73.4635 78.9584 72.4928V72.4873Z" clip-rule="evenodd"/></g><defs><clipPath id="clip0_7_147"><rect width="180" height="180" fill="#fff" transform="translate(38 38)"/></clipPath></defs></svg>
        </g>
         
        <g transform="translate(1500, 0)">
          <svg xmlns="http://www.w3.org/2000/svg" width="256" height="256" fill="none" viewBox="0 0 256 256"><rect width="256" height="256" fill="#242938" rx="60"/><path fill="url(#paint0_linear_2_47)" d="M127.279 29C76.5066 29 79.6772 51.018 79.6772 51.018L79.7338 73.8284H128.185V80.6772H60.4893C60.4893 80.6772 28 76.9926 28 128.222C28 179.452 56.3573 177.636 56.3573 177.636H73.2812V153.863C73.2812 153.863 72.369 125.506 101.186 125.506H149.24C149.24 125.506 176.239 125.942 176.239 99.4123V55.5461C176.239 55.5461 180.338 29 127.279 29ZM100.563 44.339C105.384 44.339 109.28 48.2351 109.28 53.0556C109.28 57.8761 105.384 61.7723 100.563 61.7723C95.7426 61.7723 91.8465 57.8761 91.8465 53.0556C91.8465 48.2351 95.7426 44.339 100.563 44.339Z"/><path fill="url(#paint1_linear_2_47)" d="M128.721 227.958C179.493 227.958 176.323 205.941 176.323 205.941L176.266 183.13H127.815V176.281H195.511C195.511 176.281 228 179.966 228 128.736C228 77.5062 199.643 79.323 199.643 79.323H182.719V103.096C182.719 103.096 183.631 131.453 154.814 131.453H106.76C106.76 131.453 79.7607 131.016 79.7607 157.546V201.412C79.7607 201.412 75.6615 227.958 128.721 227.958ZM155.437 212.619C150.616 212.619 146.72 208.723 146.72 203.903C146.72 199.082 150.616 195.186 155.437 195.186C160.257 195.186 164.154 199.082 164.154 203.903C164.154 208.723 160.257 212.619 155.437 212.619Z"/><defs><linearGradient id="paint0_linear_2_47" x1="47.22" x2="146.333" y1="46.896" y2="145.02" gradientUnits="userSpaceOnUse"><stop stop-color="#387EB8"/><stop offset="1" stop-color="#366994"/></linearGradient><linearGradient id="paint1_linear_2_47" x1="108.056" x2="214.492" y1="109.905" y2="210.522" gradientUnits="userSpaceOnUse"><stop stop-color="#FFE052"/><stop offset="1" stop-color="#FFC331"/></linearGradient></defs></svg>
        </g>
         
        <g transform="translate(1800, 0)">
          <svg xmlns="http://www.w3.org/2000/svg" width="256" height="256" fill="none" viewBox="0 0 256 256"><rect width="256" height="256" fill="#242938" rx="60"/><path fill="#fff" d="M101.634 182.619C101.634 182.619 93.9548 187.293 106.979 188.63C122.707 190.634 131.023 190.299 148.386 186.962C148.386 186.962 153.06 189.971 159.406 192.306C120.331 209.002 70.9089 191.304 101.634 182.619ZM96.6252 160.914C96.6252 160.914 88.2753 167.26 101.299 168.593C118.327 170.262 131.69 170.597 154.732 165.926C154.732 165.926 157.741 169.267 162.747 170.936C115.664 184.961 62.8975 172.269 96.6252 160.917V160.914ZM188.795 198.984C188.795 198.984 194.471 203.658 182.449 207.334C160.073 214.012 88.6104 216.019 68.5735 207.334C61.564 204.325 74.9197 199.982 79.2587 199.319C83.6012 198.317 85.9366 198.317 85.9366 198.317C78.2569 192.973 34.8424 209.337 63.8959 214.046C143.709 227.073 209.499 208.37 188.792 199.018L188.795 198.984ZM105.307 138.203C105.307 138.203 68.9052 146.888 92.2793 149.89C102.298 151.223 122 150.892 140.368 149.555C155.396 148.221 170.458 145.548 170.458 145.548C170.458 145.548 165.113 147.886 161.441 150.222C124.342 159.915 53.2107 155.573 73.5827 145.554C90.9526 137.204 105.307 138.203 105.307 138.203V138.203ZM170.423 174.604C207.83 155.234 190.46 136.534 178.438 138.873C175.429 139.54 174.096 140.207 174.096 140.207C174.096 140.207 175.097 138.203 177.436 137.54C201.145 129.19 219.849 162.586 169.757 175.61C169.757 175.61 170.092 175.275 170.423 174.608V174.604ZM108.979 227.364C145.046 229.703 200.147 226.03 201.484 208.995C201.484 208.995 198.817 215.673 171.764 220.683C141.042 226.359 102.968 225.692 80.5957 222.016C80.5957 222.016 85.2698 226.023 108.982 227.36L108.979 227.364Z"/><path fill="#F58219" d="M147.685 28C147.685 28 168.389 49.0388 127.983 80.7594C95.5891 106.472 120.632 121.168 127.983 137.861C108.948 120.833 95.2609 105.802 104.606 91.7762C118.331 71.0828 156.062 61.0644 147.685 28ZM137 123.842C146.683 134.862 134.333 144.881 134.333 144.881C134.333 144.881 159.044 132.195 147.692 116.494C137.338 101.466 129.324 94.1184 172.738 69.0689C172.738 69.0689 104.278 86.0968 137.007 123.835L137 123.842Z"/></svg>
        </g>
         
        <g transform="translate(2100, 0)">
          <svg xmlns="http://www.w3.org/2000/svg" width="256" height="256" fill="none" viewBox="0 0 256 256"><rect width="256" height="256" fill="#E43717" rx="60"/><path fill="#fff" d="M226.574 125.551L218.184 120.353C218.113 119.535 218.033 118.719 217.945 117.907L225.169 111.18C225.903 110.496 226.232 109.483 226.033 108.504C225.84 107.52 225.15 106.71 224.212 106.364L214.98 102.924C214.749 102.125 214.506 101.332 214.258 100.535L220.011 92.5468C220.598 91.7345 220.718 90.6777 220.336 89.7566C219.953 88.8335 219.118 88.1723 218.138 88.0098L208.409 86.4275C208.031 85.6898 207.637 84.9636 207.239 84.2488L211.33 75.2668C211.748 74.3533 211.662 73.2983 211.104 72.4575C210.548 71.6242 209.606 71.1369 208.6 71.1751L198.719 71.5191C198.209 70.8808 197.689 70.2483 197.159 69.6272L199.434 60.0144C199.663 59.0379 199.375 58.0078 198.664 57.3007C197.958 56.5936 196.934 56.3012 195.949 56.5305L186.336 58.8047C185.713 58.2772 185.08 57.7555 184.44 57.2453L184.786 47.365C184.824 46.3655 184.336 45.4157 183.503 44.8615C182.668 44.3034 181.611 44.2193 180.693 44.634L171.729 48.7238C171.005 48.3263 170.279 47.9326 169.551 47.5523L167.964 37.8249C167.804 36.8387 167.142 36.0017 166.217 35.6271C165.294 35.243 164.23 35.3672 163.427 35.952L155.438 41.7044C154.65 41.454 153.859 41.2132 153.068 40.9839L149.627 31.7534C149.277 30.8131 148.467 30.1232 147.487 29.9283C146.504 29.7353 145.499 30.0621 144.811 30.7921L138.083 38.016C137.271 37.9262 136.453 37.844 135.637 37.7771L130.438 29.3683C129.912 28.5179 128.981 28 127.972 28C126.963 28 126.042 28.5179 125.526 29.3683L120.327 37.7771C119.509 37.844 118.691 37.9262 117.881 38.016L111.153 30.7921C110.471 30.0621 109.458 29.7353 108.477 29.9283C107.493 30.1251 106.682 30.8131 106.336 31.7534L102.896 40.9839C102.097 41.2132 101.306 41.4559 100.526 41.7044L92.5368 35.952C91.7245 35.3653 90.6657 35.2411 89.7463 35.6271C88.8232 36.0093 88.16 36.8464 87.9994 37.8249L86.413 47.5523C85.6791 47.9326 84.9528 48.3243 84.2342 48.7238L75.2702 44.634C74.3585 44.2174 73.3016 44.3034 72.4606 44.8615C71.6273 45.4157 71.1399 46.3655 71.1781 47.365L71.5221 57.2453C70.8838 57.7555 70.2511 58.2772 69.6261 58.8047L60.0123 56.5305C59.0356 56.3031 58.0054 56.5936 57.2983 57.3007C56.5873 58.0097 56.2987 59.0321 56.528 60.0144L58.7833 69.6272C58.2577 70.2502 57.7379 70.8808 57.2275 71.5191L47.3461 71.1751C46.3504 71.1465 45.3966 71.6242 44.8423 72.4575C44.2842 73.2869 44.2002 74.3494 44.6149 75.2668L48.7051 84.2488C48.3075 84.9693 47.9138 85.6955 47.5335 86.4275L37.805 88.0098C36.8168 88.1704 35.9835 88.8316 35.607 89.7566C35.2247 90.6835 35.3489 91.7441 35.9319 92.5468L41.6849 100.535C41.4345 101.324 41.1918 102.117 40.9624 102.924L31.7309 106.364C30.7943 106.714 30.1043 107.524 29.9094 108.504C29.7144 109.487 30.0413 110.492 30.7733 111.18L37.998 117.907C37.9082 118.719 37.8279 119.537 37.7591 120.353L29.3685 125.551C28.518 126.077 28 127.005 28 128.016C28 129.027 28.518 129.947 29.3685 130.463L37.7591 135.661C37.8279 136.479 37.9082 137.295 37.998 138.107L30.7733 144.834C30.0413 145.516 29.7144 146.529 29.9094 147.509C30.1043 148.494 30.7943 149.302 31.7309 149.65L40.9624 153.09C41.1918 153.889 41.4345 154.682 41.6849 155.479L35.9319 163.467C35.347 164.281 35.2228 165.338 35.607 166.257C35.9911 167.184 36.8264 167.845 37.8241 168.004L47.5526 169.586C47.9329 170.324 48.3228 171.05 48.7242 171.765L44.634 180.728C44.2174 181.639 44.3034 182.696 44.8615 183.537C45.4196 184.372 46.3695 184.86 47.3653 184.819L57.2275 184.474C57.7417 185.116 58.2597 185.744 58.7872 186.369L56.5318 195.982C56.3025 196.957 56.5911 197.97 57.3021 198.677C58.0074 199.39 59.0337 199.674 60.0161 199.445L69.63 197.19C70.2549 197.721 70.8876 198.237 71.526 198.746L71.1819 208.626C71.1437 209.625 71.6311 210.575 72.4644 211.129C73.2939 211.685 74.3566 211.77 75.274 211.353L84.238 207.263C84.9605 207.665 85.6868 208.054 86.4169 208.435L88.0032 218.162C88.1638 219.152 88.8251 219.989 89.7502 220.379C90.6733 220.763 91.7379 220.639 92.5407 220.056L100.53 214.304C101.319 214.554 102.112 214.799 102.919 215.028L106.359 224.258C106.709 225.195 107.519 225.889 108.5 226.08C109.482 226.278 110.488 225.95 111.176 225.216L117.904 217.992C118.716 218.086 119.534 218.164 120.35 218.237L125.549 226.626C126.072 227.473 127.003 227.995 127.995 227.995C128.987 227.995 129.926 227.475 130.461 226.626L135.66 218.237C136.478 218.164 137.294 218.086 138.106 217.992L144.834 225.216C145.516 225.95 146.529 226.278 147.51 226.08C148.494 225.887 149.304 225.195 149.65 224.258L153.091 215.028C153.889 214.799 154.683 214.554 155.48 214.304L163.469 220.056C164.281 220.639 165.34 220.763 166.259 220.379C167.184 219.999 167.846 219.16 168.006 218.162L169.593 208.435C170.327 208.054 171.053 207.659 171.772 207.263L180.736 211.353C181.647 211.77 182.704 211.685 183.545 211.129C184.378 210.571 184.864 209.625 184.828 208.626L184.484 198.746C185.122 198.235 185.755 197.721 186.378 197.19L195.991 199.445C196.968 199.674 197.998 199.39 198.706 198.677C199.417 197.968 199.705 196.949 199.476 195.982L197.22 186.369C197.748 185.744 198.268 185.116 198.776 184.474L208.658 184.819C209.653 184.86 210.607 184.372 211.161 183.537C211.72 182.704 211.806 181.643 211.387 180.728L207.297 171.765C207.696 171.041 208.088 170.314 208.467 169.586L218.195 168.004C219.185 167.845 220.018 167.184 220.393 166.257C220.775 165.334 220.655 164.27 220.068 163.467L214.315 155.479C214.564 154.689 214.806 153.896 215.038 153.09L224.269 149.65C225.208 149.298 225.899 148.49 226.091 147.509C226.289 146.527 225.961 145.522 225.227 144.834L218.002 138.107C218.09 137.295 218.17 136.477 218.241 135.661L226.632 130.463C227.482 129.939 228 129.008 228 128.016C228 127.025 227.484 126.086 226.633 125.551H226.574ZM170.382 195.306C167.171 194.614 165.145 191.445 165.833 188.235C166.519 185.024 169.675 182.979 172.886 183.667C176.097 184.353 178.142 187.527 177.454 190.738C176.766 193.949 173.612 195.994 170.401 195.306H170.382ZM167.534 176.004C164.61 175.377 161.724 177.238 161.112 180.17L158.131 194.082C148.937 198.249 138.635 200.58 127.932 200.58C116.923 200.58 106.526 198.153 97.1603 193.796L94.1786 179.883C93.5517 176.959 90.681 175.086 87.7567 175.717L75.467 178.354C73.1926 176.004 71.0711 173.5 69.1215 170.863H128.945C129.622 170.863 130.073 170.741 130.073 170.125V148.912C130.073 148.297 129.622 148.175 128.945 148.175H111.457V134.778H130.359C132.085 134.778 139.591 135.271 141.98 144.868C142.731 147.811 144.388 157.405 145.516 160.482C146.64 163.922 151.212 170.802 156.086 170.802H185.902C186.24 170.802 186.601 170.763 186.982 170.695C184.917 173.504 182.643 176.16 180.216 178.645L167.639 175.95L167.534 176.004ZM84.7751 195.019C81.5641 195.711 78.4104 193.666 77.7224 190.451C77.0362 187.241 79.0756 184.068 82.2904 183.38C85.5014 182.694 88.655 184.739 89.3431 187.948C90.0292 191.159 87.988 194.331 84.7751 195.019ZM62.0306 103.096C63.3609 106.096 62.0077 109.613 59.0108 110.95C56.0101 112.282 52.5124 110.928 51.1745 107.931C49.8366 104.934 51.1974 101.414 54.1943 100.076C57.1951 98.7463 60.6927 100.099 62.0306 103.096ZM55.0544 119.608L67.8601 113.913C70.5932 112.699 71.8356 109.498 70.6124 106.765L67.9748 100.803H78.334V147.433H57.5009C55.687 141.05 54.7104 134.323 54.7104 127.367C54.7104 124.71 54.8537 122.092 55.1289 119.512L55.0544 119.608ZM111.247 115.078V101.319H135.902C137.177 101.319 144.904 102.792 144.904 108.562C144.904 113.358 138.979 115.078 134.106 115.078H111.17H111.247ZM200.886 127.462C200.886 129.289 200.819 131.093 200.686 132.89H193.174C192.423 132.89 192.121 133.383 192.121 134.118V137.558C192.121 145.661 187.553 147.439 183.539 147.878C179.717 148.308 175.493 146.281 174.977 143.941C172.721 131.271 168.975 128.576 163.05 123.875C170.409 119.212 178.054 112.313 178.054 103.044C178.054 93.0876 171.231 86.8192 166.586 83.7424C160.05 79.4425 152.825 78.5825 150.875 78.5825H73.2767C83.8079 66.8485 98.1236 58.5161 114.178 55.4584L123.334 65.052C125.398 67.2116 128.819 67.3071 130.998 65.2279L141.242 55.4431C162.649 59.4373 180.806 72.7766 191.318 91.1803L184.304 107.004C183.094 109.737 184.329 112.948 187.056 114.152L200.55 120.152C200.783 122.541 200.905 124.968 200.905 127.414L200.886 127.462ZM123.288 47.3879C125.658 45.1137 129.423 45.2093 131.678 47.5809C133.934 49.9507 133.857 53.7155 131.481 55.9897C129.111 58.2639 125.346 58.1683 123.091 55.7948C120.836 53.425 120.912 49.6602 123.288 47.386V47.3879ZM192.859 103.383C194.187 100.382 197.694 99.0253 200.695 100.363C203.696 101.693 205.053 105.217 203.715 108.218C202.387 111.218 198.879 112.575 195.879 111.237C192.878 109.907 191.521 106.383 192.859 103.383Z"/></svg>
        </g>
        
  </svg>
  